<svg width="159" height="58" viewBox="0 0 159 58" fill="none" xmlns="http://www.w3.org/2000/svg">
<path d="M32.8826 42.3953L35.7463 39.9898L31.3586 34.7666L28.4949 37.1723L32.8826 42.3953Z" fill="url(#paint0_linear_27_1292)"/>
<path d="M44.5319 53.2261C45.9697 52.0181 46.1117 49.8557 44.8436 48.4705L35.0913 38.3467L31.3793 41.4649L39.7941 52.7125C40.9394 54.2004 43.0941 54.4341 44.5319 53.2261Z" fill="url(#paint1_linear_27_1292)"/>
<path d="M38.2099 25.996C37.5536 30.4937 35.3131 34.7749 31.5674 37.9216C23.4564 44.7347 11.3154 43.6788 4.50237 35.5682C1.20219 31.6391 -0.370452 26.6599 0.073947 21.5481C0.519303 16.4271 2.92734 11.803 6.85558 8.50324C10.7843 5.20252 15.7634 3.62963 20.8752 4.07427C25.9872 4.51915 30.6201 6.92771 33.9206 10.8565C37.5868 15.2213 38.9746 20.7548 38.2099 25.996ZM4.12526 20.9902C4.08192 21.2878 4.04696 21.5885 4.02062 21.8912C3.66769 25.9495 4.91612 29.9013 7.53606 33.0202C10.1558 36.139 13.8331 38.0509 17.8908 38.4036C21.9486 38.7566 25.9008 37.5084 29.0197 34.8881C35.4575 29.4801 36.2946 19.8425 30.8873 13.4046C28.2676 10.2859 24.5901 8.37346 20.5321 8.02076C16.4743 7.66806 12.5224 8.91676 9.40369 11.5367C6.51749 13.9611 4.66495 17.2915 4.12526 20.9902Z" fill="#4356D6"/>
<path d="M11.5092 21.0352V34.8743C13.425 36.0001 15.6513 36.6924 18.0241 36.8703C18.2489 36.887 18.4733 36.899 18.6972 36.9064V21.0352H11.5092Z" fill="url(#paint2_linear_27_1292)"/>
<path d="M19.902 16.2027V36.8994C22.487 36.7916 24.9632 36.058 27.0899 34.7647V16.2027H19.902Z" fill="#4356D6"/>
<path d="M28.0265 33.7056C33.8123 28.8451 34.5647 20.1837 29.705 14.3976C29.1763 13.7681 28.5971 13.1963 27.9794 12.6799V33.7431C27.9949 33.7305 28.0112 33.7187 28.0265 33.7056Z" fill="url(#paint3_linear_27_1292)"/>
<path d="M5.59766 24.7749C5.89624 27.4277 6.96198 29.9361 8.7185 32.0269C9.24455 32.653 9.8204 33.2219 10.4346 33.7362V24.7749H5.59766Z" fill="url(#paint4_linear_27_1292)"/>
<path d="M84.0913 39.0869V44H68.7012V39.0869H84.0913ZM70.7378 13.4297V44H64.439V13.4297H70.7378ZM86.3589 32.8721V32.4312C86.3589 30.7655 86.5968 29.2327 87.0728 27.833C87.5487 26.4193 88.2415 25.1945 89.1514 24.1587C90.0612 23.1229 91.181 22.318 92.5107 21.7441C93.8405 21.1562 95.3662 20.8623 97.0879 20.8623C98.8096 20.8623 100.342 21.1562 101.686 21.7441C103.03 22.318 104.157 23.1229 105.066 24.1587C105.99 25.1945 106.69 26.4193 107.166 27.833C107.642 29.2327 107.88 30.7655 107.88 32.4312V32.8721C107.88 34.5238 107.642 36.0565 107.166 37.4702C106.69 38.87 105.99 40.0947 105.066 41.1445C104.157 42.1803 103.037 42.9852 101.707 43.5591C100.377 44.133 98.8516 44.4199 97.1299 44.4199C95.4082 44.4199 93.8755 44.133 92.5317 43.5591C91.202 42.9852 90.0752 42.1803 89.1514 41.1445C88.2415 40.0947 87.5487 38.87 87.0728 37.4702C86.5968 36.0565 86.3589 34.5238 86.3589 32.8721ZM92.4058 32.4312V32.8721C92.4058 33.8239 92.4897 34.7127 92.6577 35.5386C92.8257 36.3644 93.0916 37.0923 93.4556 37.7222C93.8335 38.3381 94.3234 38.821 94.9253 39.1709C95.5272 39.5208 96.262 39.6958 97.1299 39.6958C97.9697 39.6958 98.6906 39.5208 99.2925 39.1709C99.8944 38.821 100.377 38.3381 100.741 37.7222C101.105 37.0923 101.371 36.3644 101.539 35.5386C101.721 34.7127 101.812 33.8239 101.812 32.8721V32.4312C101.812 31.5073 101.721 30.6395 101.539 29.8276C101.371 29.0018 101.098 28.2739 100.72 27.644C100.356 27.0002 99.8734 26.4963 99.2715 26.1323C98.6696 25.7684 97.9417 25.5864 97.0879 25.5864C96.234 25.5864 95.5062 25.7684 94.9043 26.1323C94.3164 26.4963 93.8335 27.0002 93.4556 27.644C93.0916 28.2739 92.8257 29.0018 92.6577 29.8276C92.4897 30.6395 92.4058 31.5073 92.4058 32.4312ZM125.979 21.2822H131.458V43.2441C131.458 45.3158 130.997 47.0724 130.073 48.5142C129.163 49.9699 127.889 51.0687 126.251 51.8105C124.614 52.5664 122.71 52.9443 120.541 52.9443C119.589 52.9443 118.581 52.8184 117.517 52.5664C116.467 52.3145 115.459 51.9225 114.494 51.3906C113.542 50.8587 112.744 50.1868 112.1 49.375L114.767 45.8057C115.466 46.6175 116.278 47.2474 117.202 47.6953C118.126 48.1572 119.148 48.3882 120.268 48.3882C121.359 48.3882 122.283 48.1852 123.039 47.7793C123.795 47.3874 124.376 46.8065 124.782 46.0366C125.188 45.2808 125.391 44.3639 125.391 43.2861V26.5312L125.979 21.2822ZM110.693 32.9141V32.4731C110.693 30.7375 110.903 29.1628 111.323 27.749C111.757 26.3213 112.366 25.0965 113.15 24.0747C113.948 23.0529 114.914 22.262 116.047 21.7021C117.181 21.1423 118.462 20.8623 119.89 20.8623C121.401 20.8623 122.668 21.1423 123.69 21.7021C124.712 22.262 125.552 23.0599 126.209 24.0957C126.867 25.1175 127.378 26.3283 127.742 27.728C128.12 29.1138 128.414 30.6325 128.624 32.2842V33.25C128.414 34.8317 128.099 36.3014 127.679 37.6592C127.259 39.0169 126.706 40.2067 126.021 41.2285C125.335 42.2363 124.481 43.0202 123.459 43.5801C122.451 44.14 121.247 44.4199 119.848 44.4199C118.448 44.4199 117.181 44.133 116.047 43.5591C114.928 42.9852 113.969 42.1803 113.171 41.1445C112.373 40.1087 111.757 38.891 111.323 37.4912C110.903 36.0915 110.693 34.5658 110.693 32.9141ZM116.74 32.4731V32.9141C116.74 33.8519 116.831 34.7267 117.013 35.5386C117.195 36.3504 117.475 37.0713 117.853 37.7012C118.245 38.3171 118.728 38.8 119.302 39.1499C119.89 39.4858 120.583 39.6538 121.38 39.6538C122.486 39.6538 123.389 39.4229 124.089 38.9609C124.789 38.485 125.314 37.8341 125.664 37.0083C126.014 36.1825 126.216 35.2306 126.272 34.1528V31.4023C126.244 30.5205 126.125 29.7297 125.916 29.0298C125.706 28.3159 125.412 27.707 125.034 27.2031C124.656 26.6992 124.166 26.3073 123.564 26.0273C122.962 25.7474 122.248 25.6074 121.422 25.6074C120.625 25.6074 119.932 25.7894 119.344 26.1533C118.77 26.5033 118.287 26.9862 117.895 27.6021C117.517 28.2179 117.23 28.9458 117.034 29.7856C116.838 30.6115 116.74 31.5073 116.74 32.4731ZM135.196 32.8721V32.4312C135.196 30.7655 135.434 29.2327 135.91 27.833C136.386 26.4193 137.078 25.1945 137.988 24.1587C138.898 23.1229 140.018 22.318 141.348 21.7441C142.677 21.1562 144.203 20.8623 145.925 20.8623C147.646 20.8623 149.179 21.1562 150.523 21.7441C151.867 22.318 152.993 23.1229 153.903 24.1587C154.827 25.1945 155.527 26.4193 156.003 27.833C156.479 29.2327 156.717 30.7655 156.717 32.4312V32.8721C156.717 34.5238 156.479 36.0565 156.003 37.4702C155.527 38.87 154.827 40.0947 153.903 41.1445C152.993 42.1803 151.874 42.9852 150.544 43.5591C149.214 44.133 147.688 44.4199 145.967 44.4199C144.245 44.4199 142.712 44.133 141.369 43.5591C140.039 42.9852 138.912 42.1803 137.988 41.1445C137.078 40.0947 136.386 38.87 135.91 37.4702C135.434 36.0565 135.196 34.5238 135.196 32.8721ZM141.243 32.4312V32.8721C141.243 33.8239 141.327 34.7127 141.495 35.5386C141.663 36.3644 141.929 37.0923 142.292 37.7222C142.67 38.3381 143.16 38.821 143.762 39.1709C144.364 39.5208 145.099 39.6958 145.967 39.6958C146.807 39.6958 147.528 39.5208 148.129 39.1709C148.731 38.821 149.214 38.3381 149.578 37.7222C149.942 37.0923 150.208 36.3644 150.376 35.5386C150.558 34.7127 150.649 33.8239 150.649 32.8721V32.4312C150.649 31.5073 150.558 30.6395 150.376 29.8276C150.208 29.0018 149.935 28.2739 149.557 27.644C149.193 27.0002 148.71 26.4963 148.108 26.1323C147.507 25.7684 146.779 25.5864 145.925 25.5864C145.071 25.5864 144.343 25.7684 143.741 26.1323C143.153 26.4963 142.67 27.0002 142.292 27.644C141.929 28.2739 141.663 29.0018 141.495 29.8276C141.327 30.6395 141.243 31.5073 141.243 32.4312Z" fill="black"/>
<defs>
<linearGradient id="paint0_linear_27_1292" x1="32.4281" y1="22.2322" x2="31.9599" y2="47.132" gradientUnits="userSpaceOnUse">
<stop stop-color="#2945A8"/>
<stop offset="0.1945" stop-color="#25409B"/>
<stop offset="0.5538" stop-color="#1B3179"/>
<stop offset="0.9534" stop-color="#0D1E4C"/>
</linearGradient>
<linearGradient id="paint1_linear_27_1292" x1="38.5618" y1="46.2369" x2="33.5818" y2="64.6761" gradientUnits="userSpaceOnUse">
<stop stop-color="#2945A8"/>
<stop offset="0.1945" stop-color="#25409B"/>
<stop offset="0.5538" stop-color="#1B3179"/>
<stop offset="0.9534" stop-color="#0D1E4C"/>
</linearGradient>
<linearGradient id="paint2_linear_27_1292" x1="14.4" y1="11.4286" x2="16.2364" y2="54.5857" gradientUnits="userSpaceOnUse">
<stop stop-color="#2945A8"/>
<stop offset="0.1945" stop-color="#25409B"/>
<stop offset="0.5538" stop-color="#1B3179"/>
<stop offset="0.9534" stop-color="#0D1E4C"/>
</linearGradient>
<linearGradient id="paint3_linear_27_1292" x1="29.5136" y1="6.44645" x2="31.6379" y2="56.3679" gradientUnits="userSpaceOnUse">
<stop stop-color="#2945A8"/>
<stop offset="0.1945" stop-color="#25409B"/>
<stop offset="0.5538" stop-color="#1B3179"/>
<stop offset="0.9534" stop-color="#0D1E4C"/>
</linearGradient>
<linearGradient id="paint4_linear_27_1292" x1="7.38698" y1="9.99101" x2="9.33337" y2="55.7311" gradientUnits="userSpaceOnUse">
<stop stop-color="#2945A8"/>
<stop offset="0.1945" stop-color="#25409B"/>
<stop offset="0.5538" stop-color="#1B3179"/>
<stop offset="0.9534" stop-color="#0D1E4C"/>
</linearGradient>
</defs>
</svg>
