<svg width="350" height="14" viewBox="0 0 350 14" fill="none" xmlns="http://www.w3.org/2000/svg">
<path d="M170.366 7.66686C110.416 6.64323 51.4948 6.82968 10.395 8.89836C7.42094 9.11474 2.79281 7.8592 0.952164 6.50687C-0.879378 5.15615 0.0617573 3.72586 2.66132 3.62257C45.1689 1.48277 107.545 2.02875 170.597 3.96146L170.366 7.66686ZM170.723 1.92667C106.572 -0.135082 43.8769 -0.752274 2.13036 1.11749C0.261289 1.21903 0.357409 2.36951 2.46481 2.31339C43.3432 0.25842 106.145 0.681528 170.68 2.62043L170.723 1.92667ZM338.871 13.842C293.424 11.0021 231.361 8.70825 170.366 7.66686L170.597 3.96146C231.982 5.8434 294.007 9.03978 338.964 12.3547C339.888 12.4236 339.974 12.8008 339.947 13.1704C339.917 13.5383 339.773 13.898 338.871 13.842ZM170.68 2.62043C234.663 4.54259 300.347 7.95517 348.047 11.9215C349.485 12.0394 349.754 11.5469 348.257 11.4248C300.674 7.50669 234.968 3.99219 170.723 1.92667L170.68 2.62043Z" fill="#4356D6"/>
</svg>
